<?xml version="1.0" encoding="UTF-8" standalone="no"?>
<!DOCTYPE svg PUBLIC "-//W3C//DTD SVG 1.1//EN" "http://www.w3.org/Graphics/SVG/1.1/DTD/svg11.dtd">
<svg width="100%" height="100%" viewBox="0 0 18898 4725" version="1.1" xmlns="http://www.w3.org/2000/svg" xmlns:xlink="http://www.w3.org/1999/xlink" xml:space="preserve" xmlns:serif="http://www.serif.com/" style="fill-rule:evenodd;clip-rule:evenodd;stroke-linejoin:round;stroke-miterlimit:2;">
    <g id="Light">
        <g transform="matrix(1.53774,0,0,1.53774,-3467.13,-1747.9)">
            <g transform="matrix(2133.33,0,0,2133.33,3515.01,3419.49)">
                <path d="M0.341,-0C0.331,-0 0.326,-0.005 0.325,-0.014L0.314,-0.089C0.314,-0.09 0.313,-0.092 0.312,-0.093C0.311,-0.094 0.309,-0.095 0.307,-0.095L0.219,-0.095C0.217,-0.095 0.215,-0.094 0.214,-0.093C0.213,-0.092 0.212,-0.09 0.212,-0.089L0.202,-0.014C0.201,-0.005 0.196,-0 0.186,-0L0.029,-0C0.018,-0 0.014,-0.005 0.016,-0.016L0.158,-0.687C0.16,-0.696 0.166,-0.7 0.175,-0.7L0.357,-0.7C0.366,-0.7 0.372,-0.696 0.374,-0.687L0.516,-0.016L0.516,-0.012C0.516,-0.004 0.511,-0 0.502,-0L0.341,-0ZM0.234,-0.245C0.234,-0.241 0.236,-0.239 0.239,-0.239L0.286,-0.239C0.291,-0.239 0.292,-0.241 0.291,-0.245L0.264,-0.425C0.263,-0.428 0.262,-0.429 0.261,-0.429C0.26,-0.429 0.259,-0.428 0.258,-0.425L0.234,-0.245Z" style="fill:rgb(6,14,28);fill-rule:nonzero;"/>
            </g>
            <g transform="matrix(2133.33,0,0,2133.33,4647.81,3419.49)">
                <path d="M0.041,-0C0.036,-0 0.033,-0.001 0.03,-0.004C0.027,-0.007 0.026,-0.01 0.026,-0.015L0.026,-0.685C0.026,-0.69 0.027,-0.693 0.03,-0.696C0.033,-0.699 0.036,-0.7 0.041,-0.7L0.199,-0.7C0.204,-0.7 0.207,-0.699 0.21,-0.696C0.213,-0.693 0.214,-0.69 0.214,-0.685L0.214,-0.015C0.214,-0.01 0.213,-0.007 0.21,-0.004C0.207,-0.001 0.204,-0 0.199,-0L0.041,-0Z" style="fill:rgb(6,14,28);fill-rule:nonzero;"/>
            </g>
            <g transform="matrix(2133.33,0,0,2133.33,5159.81,3419.49)">
                <path d="M0.299,-0C0.29,-0 0.285,-0.004 0.283,-0.013L0.222,-0.264C0.221,-0.267 0.219,-0.269 0.218,-0.269C0.215,-0.269 0.214,-0.267 0.214,-0.263L0.214,-0.015C0.214,-0.01 0.213,-0.007 0.21,-0.004C0.207,-0.001 0.204,-0 0.199,-0L0.041,-0C0.036,-0 0.033,-0.001 0.03,-0.004C0.027,-0.007 0.026,-0.01 0.026,-0.015L0.026,-0.685C0.026,-0.69 0.027,-0.693 0.03,-0.696C0.033,-0.699 0.036,-0.7 0.041,-0.7L0.266,-0.7C0.306,-0.7 0.341,-0.691 0.373,-0.672C0.403,-0.653 0.428,-0.626 0.445,-0.593C0.462,-0.559 0.471,-0.52 0.471,-0.477C0.471,-0.44 0.465,-0.407 0.452,-0.379C0.439,-0.349 0.421,-0.326 0.397,-0.308C0.394,-0.306 0.393,-0.303 0.394,-0.3L0.475,-0.017C0.476,-0.016 0.476,-0.014 0.476,-0.012C0.476,-0.004 0.471,-0 0.462,-0L0.299,-0ZM0.22,-0.539C0.216,-0.539 0.214,-0.537 0.214,-0.533L0.214,-0.418C0.214,-0.414 0.216,-0.412 0.22,-0.412L0.233,-0.412C0.248,-0.412 0.26,-0.418 0.269,-0.429C0.278,-0.44 0.283,-0.455 0.283,-0.475C0.283,-0.496 0.279,-0.511 0.27,-0.523C0.261,-0.534 0.248,-0.539 0.233,-0.539L0.22,-0.539Z" style="fill:rgb(6,14,28);fill-rule:nonzero;"/>
            </g>
            <g transform="matrix(2133.33,0,0,2133.33,6205.14,3419.49)">
                <path d="M0.235,0.008C0.192,0.008 0.155,0 0.123,-0.016C0.091,-0.032 0.066,-0.054 0.049,-0.083C0.031,-0.111 0.022,-0.143 0.022,-0.18L0.022,-0.211C0.022,-0.216 0.023,-0.219 0.026,-0.222C0.029,-0.225 0.032,-0.226 0.037,-0.226L0.193,-0.226C0.198,-0.226 0.201,-0.225 0.204,-0.222C0.207,-0.219 0.208,-0.216 0.208,-0.211L0.208,-0.189C0.208,-0.178 0.211,-0.17 0.216,-0.163C0.221,-0.156 0.228,-0.153 0.236,-0.153C0.244,-0.153 0.251,-0.156 0.256,-0.162C0.261,-0.168 0.264,-0.176 0.264,-0.185C0.264,-0.196 0.259,-0.208 0.248,-0.219C0.237,-0.23 0.215,-0.247 0.181,-0.271C0.148,-0.294 0.12,-0.316 0.099,-0.335C0.077,-0.354 0.058,-0.379 0.042,-0.408C0.026,-0.437 0.018,-0.471 0.018,-0.509C0.018,-0.548 0.027,-0.583 0.045,-0.613C0.062,-0.643 0.087,-0.666 0.12,-0.683C0.152,-0.7 0.189,-0.708 0.231,-0.708C0.274,-0.708 0.311,-0.7 0.344,-0.683C0.376,-0.666 0.401,-0.643 0.419,-0.613C0.436,-0.583 0.445,-0.548 0.445,-0.509L0.445,-0.487C0.445,-0.482 0.444,-0.479 0.441,-0.476C0.438,-0.473 0.435,-0.472 0.43,-0.472L0.275,-0.472C0.27,-0.472 0.267,-0.473 0.264,-0.476C0.261,-0.479 0.26,-0.482 0.26,-0.487L0.26,-0.513C0.26,-0.523 0.257,-0.531 0.252,-0.538C0.247,-0.544 0.24,-0.547 0.231,-0.547C0.222,-0.547 0.216,-0.544 0.211,-0.537C0.206,-0.53 0.203,-0.521 0.203,-0.51C0.203,-0.497 0.208,-0.484 0.219,-0.472C0.23,-0.459 0.251,-0.441 0.283,-0.418C0.326,-0.387 0.358,-0.361 0.38,-0.342C0.401,-0.323 0.418,-0.301 0.431,-0.277C0.443,-0.252 0.449,-0.224 0.449,-0.191C0.449,-0.13 0.429,-0.082 0.39,-0.046C0.351,-0.01 0.299,0.008 0.235,0.008Z" style="fill:rgb(6,14,28);fill-rule:nonzero;"/>
            </g>
            <g transform="matrix(2133.33,0,0,2133.33,7192.88,3419.49)">
                <path d="M0.041,-0C0.036,-0 0.033,-0.001 0.03,-0.004C0.027,-0.007 0.026,-0.01 0.026,-0.015L0.026,-0.685C0.026,-0.69 0.027,-0.693 0.03,-0.696C0.033,-0.699 0.036,-0.7 0.041,-0.7L0.199,-0.7C0.204,-0.7 0.207,-0.699 0.21,-0.696C0.213,-0.693 0.214,-0.69 0.214,-0.685L0.214,-0.015C0.214,-0.01 0.213,-0.007 0.21,-0.004C0.207,-0.001 0.204,-0 0.199,-0L0.041,-0Z" style="fill:rgb(6,14,28);fill-rule:nonzero;"/>
            </g>
            <g transform="matrix(2133.33,0,0,2133.33,7704.88,3419.49)">
                <path d="M0.041,-0C0.036,-0 0.033,-0.001 0.03,-0.004C0.027,-0.007 0.026,-0.01 0.026,-0.015L0.026,-0.685C0.026,-0.69 0.027,-0.693 0.03,-0.696C0.033,-0.699 0.036,-0.7 0.041,-0.7L0.238,-0.7C0.282,-0.7 0.321,-0.692 0.355,-0.675C0.388,-0.658 0.414,-0.635 0.433,-0.605C0.452,-0.574 0.461,-0.539 0.461,-0.5L0.461,-0.2C0.461,-0.161 0.452,-0.126 0.433,-0.096C0.414,-0.065 0.388,-0.042 0.355,-0.025C0.321,-0.008 0.282,-0 0.238,-0L0.041,-0ZM0.214,-0.167C0.214,-0.163 0.216,-0.161 0.22,-0.161L0.234,-0.162C0.245,-0.163 0.254,-0.168 0.261,-0.177C0.268,-0.186 0.272,-0.198 0.273,-0.213L0.273,-0.488C0.273,-0.503 0.269,-0.516 0.262,-0.525C0.255,-0.534 0.245,-0.539 0.233,-0.539L0.22,-0.539C0.216,-0.539 0.214,-0.537 0.214,-0.533L0.214,-0.167Z" style="fill:rgb(6,14,28);fill-rule:nonzero;"/>
            </g>
            <g transform="matrix(2133.33,0,0,2133.33,8735.28,3419.49)">
                <path d="M0.426,-0.554C0.426,-0.549 0.425,-0.546 0.422,-0.543C0.419,-0.54 0.416,-0.539 0.411,-0.539L0.22,-0.539C0.216,-0.539 0.214,-0.537 0.214,-0.533L0.214,-0.437C0.214,-0.433 0.216,-0.431 0.22,-0.431L0.319,-0.431C0.324,-0.431 0.327,-0.43 0.33,-0.427C0.333,-0.424 0.334,-0.421 0.334,-0.416L0.334,-0.285C0.334,-0.28 0.333,-0.277 0.33,-0.274C0.327,-0.271 0.324,-0.27 0.319,-0.27L0.22,-0.27C0.216,-0.27 0.214,-0.268 0.214,-0.264L0.214,-0.167C0.214,-0.163 0.216,-0.161 0.22,-0.161L0.411,-0.161C0.416,-0.161 0.419,-0.16 0.422,-0.157C0.425,-0.154 0.426,-0.151 0.426,-0.146L0.426,-0.015C0.426,-0.01 0.425,-0.007 0.422,-0.004C0.419,-0.001 0.416,-0 0.411,-0L0.041,-0C0.036,-0 0.033,-0.001 0.03,-0.004C0.027,-0.007 0.026,-0.01 0.026,-0.015L0.026,-0.685C0.026,-0.69 0.027,-0.693 0.03,-0.696C0.033,-0.699 0.036,-0.7 0.041,-0.7L0.411,-0.7C0.416,-0.7 0.419,-0.699 0.422,-0.696C0.425,-0.693 0.426,-0.69 0.426,-0.685L0.426,-0.554Z" style="fill:rgb(6,14,28);fill-rule:nonzero;"/>
            </g>
            <g transform="matrix(2133.33,0,0,2133.33,9682.48,3419.49)">
                <path d="M0.123,0.008C0.096,0.008 0.073,-0.001 0.056,-0.019C0.038,-0.036 0.029,-0.059 0.029,-0.086C0.029,-0.114 0.038,-0.137 0.056,-0.154C0.073,-0.171 0.096,-0.18 0.123,-0.18C0.15,-0.18 0.173,-0.171 0.191,-0.154C0.208,-0.137 0.217,-0.114 0.217,-0.086C0.217,-0.059 0.208,-0.037 0.19,-0.019C0.172,-0.001 0.15,0.008 0.123,0.008Z" style="fill:rgb(232,160,32);fill-rule:nonzero;"/>
            </g>
        </g>
        <g transform="matrix(1.53774,0,0,1.53774,7365.38,-1747.9)">
            <g transform="matrix(1333.33,0,0,1333.33,3096.74,3419.49)">
                <path d="M0.094,-0C0.087,-0 0.084,-0.003 0.084,-0.01L0.084,-0.69C0.084,-0.697 0.087,-0.7 0.094,-0.7L0.235,-0.7C0.282,-0.7 0.32,-0.684 0.348,-0.652C0.375,-0.619 0.389,-0.575 0.389,-0.518L0.389,-0.182C0.389,-0.125 0.375,-0.081 0.348,-0.049C0.32,-0.016 0.282,-0 0.235,-0L0.094,-0ZM0.123,-0.039C0.123,-0.036 0.124,-0.035 0.127,-0.035L0.236,-0.035C0.271,-0.036 0.298,-0.049 0.319,-0.075C0.339,-0.101 0.349,-0.137 0.349,-0.182L0.349,-0.517C0.349,-0.563 0.339,-0.599 0.319,-0.626C0.299,-0.652 0.271,-0.665 0.236,-0.665L0.127,-0.665C0.124,-0.665 0.123,-0.664 0.123,-0.661L0.123,-0.039Z" style="fill:rgb(136,153,187);fill-rule:nonzero;"/>
            </g>
            <g transform="matrix(1333.33,0,0,1333.33,3699.41,3419.49)">
                <path d="M0.378,-0.675C0.378,-0.668 0.375,-0.665 0.368,-0.665L0.127,-0.665C0.124,-0.665 0.123,-0.664 0.123,-0.661L0.123,-0.372C0.123,-0.369 0.124,-0.368 0.127,-0.368L0.285,-0.368C0.292,-0.368 0.295,-0.365 0.295,-0.358L0.295,-0.343C0.295,-0.336 0.292,-0.333 0.285,-0.333L0.127,-0.333C0.124,-0.333 0.123,-0.332 0.123,-0.329L0.123,-0.039C0.123,-0.036 0.124,-0.035 0.127,-0.035L0.368,-0.035C0.375,-0.035 0.378,-0.032 0.378,-0.025L0.378,-0.01C0.378,-0.003 0.375,-0 0.368,-0L0.094,-0C0.087,-0 0.084,-0.003 0.084,-0.01L0.084,-0.69C0.084,-0.697 0.087,-0.7 0.094,-0.7L0.368,-0.7C0.375,-0.7 0.378,-0.697 0.378,-0.69L0.378,-0.675Z" style="fill:rgb(136,153,187);fill-rule:nonzero;"/>
            </g>
            <g transform="matrix(1333.33,0,0,1333.33,4266.08,3419.49)">
                <path d="M0.201,0.008C0.155,0.008 0.118,-0.008 0.09,-0.04C0.061,-0.072 0.047,-0.114 0.047,-0.166L0.047,-0.185C0.047,-0.192 0.05,-0.195 0.057,-0.195L0.075,-0.195C0.082,-0.195 0.085,-0.192 0.085,-0.185L0.085,-0.167C0.085,-0.125 0.096,-0.091 0.117,-0.065C0.138,-0.039 0.166,-0.026 0.2,-0.026C0.233,-0.026 0.261,-0.039 0.284,-0.064C0.306,-0.089 0.317,-0.121 0.317,-0.162C0.317,-0.189 0.312,-0.212 0.302,-0.231C0.291,-0.25 0.278,-0.266 0.262,-0.28C0.246,-0.294 0.221,-0.314 0.187,-0.339C0.153,-0.364 0.127,-0.386 0.109,-0.403C0.09,-0.42 0.075,-0.441 0.064,-0.464C0.053,-0.487 0.047,-0.515 0.047,-0.547C0.047,-0.597 0.061,-0.636 0.088,-0.665C0.115,-0.694 0.151,-0.708 0.195,-0.708C0.242,-0.708 0.279,-0.692 0.308,-0.66C0.336,-0.627 0.35,-0.585 0.35,-0.532L0.35,-0.507C0.35,-0.5 0.347,-0.497 0.34,-0.497L0.321,-0.497C0.314,-0.497 0.311,-0.5 0.311,-0.507L0.311,-0.532C0.311,-0.575 0.3,-0.609 0.279,-0.635C0.258,-0.661 0.23,-0.674 0.195,-0.674C0.163,-0.674 0.137,-0.663 0.116,-0.64C0.095,-0.617 0.085,-0.586 0.085,-0.545C0.085,-0.521 0.089,-0.5 0.098,-0.483C0.107,-0.465 0.119,-0.448 0.136,-0.433C0.152,-0.418 0.176,-0.398 0.209,-0.374C0.248,-0.345 0.278,-0.321 0.297,-0.304C0.316,-0.286 0.33,-0.267 0.341,-0.246C0.351,-0.225 0.356,-0.199 0.356,-0.169C0.356,-0.116 0.341,-0.073 0.313,-0.041C0.284,-0.008 0.246,0.008 0.201,0.008Z" style="fill:rgb(136,153,187);fill-rule:nonzero;"/>
            </g>
            <g transform="matrix(1333.33,0,0,1333.33,4804.74,3419.49)">
                <path d="M0.094,-0C0.087,-0 0.084,-0.003 0.084,-0.01L0.084,-0.69C0.084,-0.697 0.087,-0.7 0.094,-0.7L0.113,-0.7C0.12,-0.7 0.123,-0.697 0.123,-0.69L0.123,-0.01C0.123,-0.003 0.12,-0 0.113,-0L0.094,-0Z" style="fill:rgb(136,153,187);fill-rule:nonzero;"/>
            </g>
            <g transform="matrix(1333.33,0,0,1333.33,5082.08,3419.49)">
                <path d="M0.221,0.008C0.174,0.008 0.137,-0.006 0.108,-0.035C0.079,-0.064 0.065,-0.102 0.065,-0.149L0.065,-0.551C0.065,-0.598 0.079,-0.636 0.108,-0.665C0.137,-0.694 0.174,-0.708 0.221,-0.708C0.268,-0.708 0.306,-0.694 0.335,-0.665C0.364,-0.636 0.378,-0.598 0.378,-0.551L0.378,-0.505C0.378,-0.498 0.375,-0.495 0.368,-0.495L0.349,-0.495C0.342,-0.495 0.339,-0.498 0.339,-0.505L0.339,-0.552C0.339,-0.588 0.328,-0.617 0.307,-0.64C0.285,-0.662 0.256,-0.673 0.221,-0.673C0.186,-0.673 0.158,-0.662 0.137,-0.64C0.115,-0.617 0.104,-0.588 0.104,-0.552L0.104,-0.148C0.104,-0.112 0.115,-0.083 0.137,-0.061C0.158,-0.038 0.186,-0.027 0.221,-0.027C0.256,-0.027 0.285,-0.038 0.307,-0.061C0.328,-0.083 0.339,-0.112 0.339,-0.148L0.339,-0.3C0.339,-0.303 0.338,-0.304 0.335,-0.304L0.235,-0.304C0.228,-0.304 0.225,-0.307 0.225,-0.314L0.225,-0.329C0.225,-0.336 0.228,-0.339 0.235,-0.339L0.368,-0.339C0.375,-0.339 0.378,-0.336 0.378,-0.329L0.378,-0.149C0.378,-0.102 0.364,-0.064 0.335,-0.035C0.306,-0.006 0.268,0.008 0.221,0.008Z" style="fill:rgb(136,153,187);fill-rule:nonzero;"/>
            </g>
            <g transform="matrix(1333.33,0,0,1333.33,5672.74,3419.49)">
                <path d="M0.361,-0.69C0.361,-0.697 0.364,-0.7 0.371,-0.7L0.39,-0.7C0.397,-0.7 0.4,-0.697 0.4,-0.69L0.4,-0.01C0.4,-0.003 0.397,-0 0.39,-0L0.366,-0C0.361,-0 0.357,-0.003 0.355,-0.008L0.128,-0.6C0.127,-0.602 0.126,-0.603 0.125,-0.603C0.124,-0.602 0.123,-0.601 0.123,-0.599L0.123,-0.01C0.123,-0.003 0.12,-0 0.113,-0L0.094,-0C0.087,-0 0.084,-0.003 0.084,-0.01L0.084,-0.69C0.084,-0.697 0.087,-0.7 0.094,-0.7L0.117,-0.7C0.122,-0.7 0.126,-0.697 0.128,-0.692L0.356,-0.103C0.357,-0.101 0.358,-0.1 0.359,-0.101C0.36,-0.101 0.361,-0.102 0.361,-0.104L0.361,-0.69Z" style="fill:rgb(136,153,187);fill-rule:nonzero;"/>
            </g>
        </g>
    </g>
</svg>
